<svg xmlns="http://www.w3.org/2000/svg" version="1.1" xmlns:xlink="http://www.w3.org/1999/xlink" xmlns:svgjs="http://svgjs.dev/svgjs" viewBox="0 0 800 800" opacity="0.25"><g stroke-width="2" stroke="hsl(32, 0%, 100%)" fill="none"><path d="M739.7895195046544 329.357148282969C753.6757320109291 468.09564213342946 646.0878129511094 661.0661391795779 520.7694738273126 722.1931418291165C395.4511347035159 783.320144478655 226.1507472191239 725.4085092566688 138.26149171043056 622.7667610007547C50.37223620173722 520.1250127448405 33.098096950842375 347.5374147119478 98.90104738558477 229.51275020072933C164.70399782032717 111.4880856895108 320.59722210572124 35.44745507977342 454.1156537971941 56.248371346906936C587.6340854886671 77.04928761404051 725.9033069983795 190.6186544325085 739.7895195046544 329.357148282969C753.6757320109291 468.09564213342946 646.0878129511094 661.0661391795779 520.7694738273126 722.1931418291165 "></path><path d="M728.8285662781307 331.6359538890124C742.2668364454935 465.89901245397414 638.1494954198614 652.6446547566984 516.8736833645743 711.7998186110905C395.59787130928714 770.9549824654828 231.75878664697223 714.9114645087219 146.70466841275288 615.5807403900952C61.650550178533535 516.2500162714687 44.93364122605459 349.22976011060473 108.61391584032145 235.01234284168368C172.29419045458832 120.79492557276245 323.15860105335673 47.20721853108114 452.36998656123376 67.33713749927489C581.5813720691108 87.46705646746864 715.390296110768 197.37289532405055 728.8285662781307 331.6359538890124C742.2668364454935 465.89901245397414 638.1494954198614 652.6446547566984 516.8736833645743 711.7998186110905 "></path><path d="M717.8676130516071 333.9147594950557C730.8579408800575 463.7023827745187 630.2111778886134 644.2231703338188 512.9778929018358 701.4064953930647C395.7446079150583 758.5898204523105 237.36682607482055 704.4144197607749 155.14784511507514 608.3947197794358C72.92886415532979 512.3750197980967 56.76918550126686 350.92210550926166 118.32678429505813 240.5119354826379C179.8843830888494 130.10176545601416 325.7199800009922 58.9669819823888 450.6243193252733 78.42590365164278C575.5286586495545 97.88482532089677 704.8772852231566 204.1271362155926 717.8676130516071 333.9147594950557C730.8579408800575 463.7023827745187 630.2111778886134 644.2231703338188 512.9778929018358 701.4064953930647 "></path><path d="M706.9066598250835 336.193565101099C719.4490453146219 461.5057530950635 622.2728603573654 635.8016859109393 509.0821024390974 691.0131721750388C395.8913445208294 746.2246584391382 242.97486550266888 693.9173750128278 163.59102181739746 601.2086991687764C84.2071781321261 508.5000233247249 68.60472977647908 352.6144509079187 128.0396527497948 246.01152812359226C187.47457572311055 139.40860533926582 328.2813589486277 70.72674543369652 448.87865208931294 89.51466980401074C569.4759452299982 108.3025941743249 694.364274335545 210.88137710713465 706.9066598250835 336.193565101099C719.4490453146219 461.5057530950635 622.2728603573654 635.8016859109393 509.0821024390974 691.0131721750388 "></path><path d="M695.9457065985598 338.4723707071423C708.0401497491862 459.3091234156079 614.3345428261175 627.3802014880598 505.1863119763591 680.6198489570128C396.0380811266007 733.8594964259657 248.5829049305171 683.4203302648809 172.03419851971978 594.022678558117C95.48549210892236 504.625026851353 80.44027405169135 354.3067963065756 137.7525212045315 251.5111207645466C195.06476835737163 148.71544522251747 330.8427378962633 82.48650888500424 447.1329848533526 100.60343595637863C563.4232318104418 118.72036302775302 683.8512634479334 217.63561799867676 695.9457065985598 338.4723707071423C708.0401497491862 459.3091234156079 614.3345428261175 627.3802014880598 505.1863119763591 680.6198489570128 "></path><path d="M684.9847533720362 340.75117631318574C696.6312541837506 457.1124937361526 606.3962252948695 618.9587170651803 501.29052151362066 670.2265257389869C396.1848177323717 721.4943344127935 254.19094435836547 672.9232855169339 180.47737522204204 586.8366579474575C106.76380608571861 500.75003037798115 92.27581832690356 355.99914170523255 147.46538965926817 257.01071340550084C202.65496099163278 158.02228510576913 333.4041168438988 94.24627233631196 445.3873176173922 111.69220210874659C557.3705183908855 129.13813188118115 673.3382525603218 224.38985889021882 684.9847533720362 340.75117631318574C696.6312541837506 457.1124937361526 606.3962252948695 618.9587170651803 501.29052151362066 670.2265257389869 "></path><path d="M674.0238306630907 343.02998191922904C685.2223891358929 454.9158640566973 598.4579382811996 610.5372326423008 497.39476156846035 659.8332025209609C396.3315848557211 709.1291723996211 259.7990143037919 662.426240768987 188.92058244194249 579.6506373367981C118.04215058009305 496.87503390460927 104.11139311969396 357.6914871038895 157.17828863158297 262.51030604645507C210.24518414347204 167.32912498902078 335.9655263091124 106.00603578761968 443.6416808990099 122.78096826111448C551.3178354889073 139.55590073460928 662.8252721902885 231.14409978176087 674.0238306630907 343.02998191922904C685.2223891358929 454.9158640566973 598.4579382811996 610.5372326423008 497.39476156846035 659.8332025209609 "></path><path d="M663.0628774365671 345.30878752527235C673.8134935704571 452.7192343772417 590.5196207499516 602.1157482194212 493.4989711057219 649.439879302935C396.4783214614922 696.7640103864487 265.40705373164025 651.92919602104 197.3637591442648 572.4646167261387C129.3204645568893 493.0000374312374 115.94693739490617 359.3838325025464 166.89115708631965 268.0098986874094C217.83537677773313 176.6359648722725 338.5269052567479 117.7657992389274 441.8960136630494 133.86973441348238C545.265122069351 149.9736695880374 652.312261302677 237.89834067330293 663.0628774365671 345.30878752527235C673.8134935704571 452.7192343772417 590.5196207499516 602.1157482194212 493.4989711057219 649.439879302935 "></path><path d="M652.1018936924653 347.58759313131566C662.4045674874433 450.5226046977864 582.5812727011255 593.6942637965417 489.60315012540536 639.0465560849091C396.6250275496852 684.3988483732763 271.01506264191045 641.432151273093 205.80690532900894 565.2785961154792C140.5987480161075 489.1250409578655 127.78245115254032 361.0761779012033 176.6039950234782 273.5094913283637C225.42553889441615 185.94280475552415 341.0882536868053 129.52556269023512 440.15031590951094 144.95850056585033C539.2123781322166 160.39143844146554 641.7992198974873 244.65258156484504 652.1018936924653 347.58759313131566C662.4045674874433 450.5226046977864 582.5812727011255 593.6942637965417 489.60315012540536 639.0465560849091 "></path><path d="M641.1409404659416 349.86636821978095C650.9956719220077 448.32594450075294 574.6429551698775 585.272748856084 485.70735966266693 628.653202349305C396.77176415545637 672.033655842526 276.6231020697588 630.9350760075679 214.25008203133126 558.0925449872417C151.87706199290375 485.2500139669155 139.61799542775253 362.768492782282 186.31686347821488 279.0090534517399C233.01573152867724 195.24961412119768 343.64963263444076 141.2852956239647 438.4046486735506 156.0472362006401C533.1596647126604 170.80917677731554 631.2862090098757 251.40679193880896 641.1409404659416 349.86636821978095C650.9956719220077 448.32594450075294 574.6429551698775 585.272748856084 485.70735966266693 628.653202349305 "></path><path d="M630.1800024982072 352.14517382582426C639.5867916153609 446.1293148212975 566.7046528974187 576.8512644332045 481.81158445871756 618.2598791312789C396.91851602001657 659.6684938293536 282.23115675639616 620.4380312596209 222.69327399244264 550.9065243765823C163.15539122848907 481.37501749354374 151.45355496175387 364.46083818093894 196.02974719174063 284.50864609269416C240.60593942172744 204.55645400444934 346.2110268408653 153.04505907527238 436.6589966963793 167.13600235300805C527.1069665518932 181.22694563074367 620.7732133810532 258.161032830351 630.1800024982072 352.14517382582426C639.5867916153609 446.1293148212975 566.7046528974187 576.8512644332045 481.81158445871756 618.2598791312789 "></path><path d="M619.2190492716835 354.42394891428944C628.1778960499253 443.93265462426405 558.7663353661706 568.4297494927469 477.91579399597913 607.866525395675C397.0652526257877 647.3033012986032 287.8391961842445 609.9409559940958 231.1364506947649 543.7204732483448C174.43370520528538 477.4999905025936 163.28909923696608 366.15315306201785 205.7426156464773 290.00820821607033C248.19613205598853 213.86326337012292 348.7724057885008 164.80479200900197 434.9133294604188 178.22473798779782C521.0542531323368 191.64468396659367 610.2602024934417 264.91524320431495 619.2190492716835 354.42394891428944C628.1778960499253 443.93265462426405 558.7663353661706 568.4297494927469 477.91579399597913 607.866525395675 "></path><path d="M608.2580960451598 356.70278503791087C616.7690004844895 441.73605546238673 550.8280178349227 560.0082955874454 474.0200035332407 597.4732326952271C397.21198923155896 634.9381698030089 293.4472356120928 599.443941763727 239.57962739708722 536.5344831552634C185.71201918208163 473.6250245468 175.12464351217835 367.8455289782528 215.45548410121398 295.5078313746028C255.78632469024967 223.1701337709527 351.3337847361363 176.56458597788782 433.16766222445847 189.3135346577439C515.0015397127805 202.06248333759993 599.7471916058303 271.6695146134351 608.2580960451598 356.70278503791087C616.7690004844895 441.73605546238673 550.8280178349227 560.0082955874454 474.0200035332407 597.4732326952271 "></path><path d="M597.2971428186363 358.9815906439543C605.3601049190538 439.5394257829314 542.8897003036747 551.5868111645659 470.1242130705024 587.0799094772012C397.3587258373301 622.5730077898365 299.05527503994114 588.94689701578 248.02280409940954 529.348462544604C196.99033315887795 469.750028073428 186.96018778739057 369.5378743769097 225.16835255595066 301.00742401555704C263.3765173245108 232.47697365420436 353.8951636837719 188.32434942919554 431.421994988498 200.4023008101118C508.94882629322433 212.48025219102806 589.2341807182186 278.4237555049772 597.2971428186363 358.9815906439543C605.3601049190538 439.5394257829314 542.8897003036747 551.5868111645659 470.1242130705024 587.0799094772012 "></path><path d="M586.3361895921125 361.2603962499976C593.9512093536181 437.34279610347596 534.9513827724268 543.1653267416864 466.22842260776395 576.6865862591753C397.50546244310124 610.2078457766643 304.66331446778946 578.449852267833 256.4659808017318 522.1624419339446C208.2686471356742 465.8750316000562 198.79573206260284 371.23021977556664 234.88122101068734 306.5070166565114C270.9667099587719 241.783813537456 356.4565426314074 200.08411288050326 429.67632775253765 211.49106696247975C502.896112873668 222.8980210444562 578.7211698306071 285.1779963965193 586.3361895921125 361.2603962499976C593.9512093536181 437.34279610347596 534.9513827724268 543.1653267416864 466.22842260776395 576.6865862591753 "></path><path d="M575.375236365589 363.5391713384629C582.5423137881824 435.1461359064424 527.0130652411788 534.7438118012287 462.3326321450255 566.2932325235713C397.6521990488724 597.8426532459138 310.2713538956378 567.9527770023079 264.9091575040541 514.9763908057071C219.54696111247046 462.0000046091062 210.63127633781505 372.92253465664544 244.59408946542402 312.00657877988755C278.55690259303304 251.09062290312954 359.0179215790429 211.84384581423285 427.9306605165773 222.57980259726952C496.8433994541117 233.3157593803062 568.2081589429956 291.9322067704832 575.375236365589 363.5391713384629C582.5423137881824 435.1461359064424 527.0130652411788 534.7438118012287 462.3326321450255 566.2932325235713 "></path><path d="M564.4142831390653 365.8179769445062C571.1334182227467 432.94950622698707 519.0747477099308 526.3223273783492 458.4368416822872 555.8999093055452C397.7989356546436 585.4774912327414 315.8793933234861 557.455732254361 273.35233420637644 507.7903701950477C230.82527508926677 458.12500813573433 222.46682061302732 374.61488005530236 254.3069579201607 317.50617142084184C286.14709522729413 260.39746278638125 361.57930052667837 223.60360926554057 426.18499328061694 233.66856874963742C490.7906860345554 243.73352823373432 557.6951480553839 298.6864476620253 564.4142831390653 365.8179769445062C571.1334182227467 432.94950622698707 519.0747477099308 526.3223273783492 458.4368416822872 555.8999093055452 "></path><path d="M553.4533146537526 368.0967825505495C559.7245073985218 430.75287654753174 511.1364149198937 517.9008429554697 454.5410359607597 545.5065860875194C397.9456570016257 573.1123292195691 321.4874174925454 546.958687506414 281.79549564990964 500.6043495843883C242.10357380727396 454.25001166236245 234.30234962945048 376.30722545395935 264.0198111161084 323.0057640617961C293.7372726027662 269.7043026696329 364.1406642155248 235.3633727168483 424.4393107858674 244.75733490200537C484.73795735621 254.15129708716245 547.1821219089834 305.4406885535673 553.4533146537526 368.0967825505495C559.7245073985218 430.75287654753174 511.1364149198937 517.9008429554697 454.5410359607597 545.5065860875194 "></path><path d="M542.4923919448072 370.37558815659287C548.3156423506643 428.5562468680763 503.1981279062238 509.47935853259014 450.6452760155994 535.1132628694934C398.0924241249749 560.7471672063967 327.09548743797177 536.461642758467 290.2387028698101 493.41832897372876C253.3819183016484 450.3750151889906 246.13792442224087 377.9995708526163 273.7327100884231 328.5053567027504C301.3274957546055 279.01114255288456 366.70207368073847 247.123136168156 422.6936740674852 255.84610105437326C478.68527445423183 264.5690659405906 536.66914153895 312.1949294451094 542.4923919448072 370.37558815659287C548.3156423506643 428.5562468680763 503.1981279062238 509.47935853259014 450.6452760155994 535.1132628694934 "></path><path d="M531.5314387182835 372.6543785038471C536.9067467852285 426.3596019298318 495.2598103749758 501.05785885092155 446.74948555286096 524.7199243926784C398.2391607307461 548.3819899344353 332.7035268658201 525.9645827517309 298.6818795721324 486.2322931042803C264.66023227844465 446.50000345682963 257.9734686974531 379.69190099248414 283.44557854315985 334.00493408491565C308.91768838886657 288.31796717734716 369.26345262837395 258.8828843606746 420.9480068315247 266.93485194795215C472.6325610346755 274.98681953522964 526.1561306513386 318.94915507786243 531.5314387182835 372.6543785038471C536.9067467852285 426.3596019298318 495.2598103749758 501.05785885092155 446.74948555286096 524.7199243926784 "></path><path d="M520.5704854917599 374.93319936867954C525.4978512197929 424.16298750916553 487.3214928437278 492.6363896868311 442.8536950901225 514.3266164334416C398.38589733651725 536.0168431800521 338.3115662936685 515.467553262573 307.12505627445466 479.04628775240985C275.9385462552409 442.6250222422468 269.80901297266536 381.38426164993007 293.15844699789653 339.504541984659C316.5078810231277 297.62482231938793 371.82483157600944 270.6426630707714 419.20233959556435 278.0236333591091C466.5798476151192 285.40460364744683 515.6431197637269 325.70341122819354 520.5704854917599 374.93319936867954C525.4978512197929 424.16298750916553 487.3214928437278 492.6363896868311 442.8536950901225 514.3266164334416 "></path><path d="M509.60953226523634 377.21195919835566C514.0889556543572 421.96631205334296 479.3831753124798 484.21485948758436 438.9579046273841 503.9332474390485C398.5326339422884 523.6516353905125 343.91960572151675 504.9704627382589 315.568232976777 471.86022136538327C287.2168602320372 438.74997999250775 281.6445572478776 383.07656127221986 302.8713154526332 345.0040888492461C324.0980736573888 306.9316164262724 374.38621052364493 282.4023807457119 417.45667235960394 289.1123537351099C460.5271341955629 295.8223267245078 505.1301088761154 332.4576063433684 509.60953226523634 377.21195919835566C514.0889556543572 421.96631205334296 479.3831753124798 484.21485948758436 438.9579046273841 503.9332474390485 "></path><path d="M498.6485637799236 379.49079532197715C502.6800448301324 419.7697128914657 471.44484252244274 475.79340558228296 435.06209890585666 493.5399547386006C398.6793552892705 511.28650389491827 349.527629890576 494.47344850789 324.01139442031024 464.674231272302C298.4951589500444 434.875014036714 293.4800862643008 384.76893718845486 312.5841686485808 350.5037120077785C331.6882510328609 316.2384868271022 376.9475742124914 294.16217471459777 415.71098986485447 300.2011504050559C454.47440551721763 306.24012609551403 494.61708272971475 339.2118777524886 498.6485637799236 379.49079532197715C502.6800448301324 419.7697128914657 471.44484252244274 475.79340558228296 435.06209890585666 493.5399547386006 "></path><path d="M487.68761055339996 381.76958566923145C491.27114926469665 417.5730679532212 463.50652499119485 467.37190590061437 431.1663084431182 483.14661626178565C398.82609189504166 498.92132662295694 355.13566931842433 483.9763885011539 332.45457112263256 457.48819540285353C309.7734729268407 431.0000023045531 305.315630539513 386.4612673283227 322.2970371033175 356.00328938994375C339.27844366712196 325.54531145156477 379.5089531601269 305.9219229071164 413.9653226288941 311.28990129863473C448.4216920976613 316.6578796901531 484.1040718421033 345.9661033852416 487.68761055339996 381.76958566923145C491.27114926469665 417.5730679532212 463.50652499119485 467.37190590061437 431.1663084431182 483.14661626178565 "></path><path d="M476.7266573268763 384.04839127527475C479.8622536992609 415.37643827376587 455.56820745994685 458.95042147773484 427.27051798037985 472.75329304375964C398.97282850081285 486.55616460978456 360.74370874627266 473.479343753207 340.8977478249548 450.30217479219414C321.051786903637 427.1250058311812 317.15117481472527 388.15361272697965 332.0099055580542 361.50288203089804C346.8686363013831 334.8521513348164 382.0703321077624 317.68168635842414 412.2196553929337 322.3786674510027C442.368978678105 327.0756485435812 473.5910609544917 352.7203442767837 476.7266573268763 384.04839127527475C479.8622536992609 415.37643827376587 455.56820745994685 458.95042147773484 427.27051798037985 472.75329304375964 "></path><path d="M465.76571935914177 386.32718162252905C468.45337339261425 413.17979333552137 447.6299051874879 450.52892179606624 423.3747427764305 462.3599545669447C399.11958036537305 474.1909873378231 366.35176343291005 462.9822837464709 349.3409397860662 443.1161389227456C332.33011613922235 423.2499940990203 328.98673434872654 389.8459428668475 341.7227892715799 367.0024594130633C354.4588441944333 344.1589759592791 384.63172631418695 329.4414345509428 410.47400341576235 333.4674183445815C436.31628051733776 337.4934021382203 463.0780653256693 359.4745699095367 465.76571935914177 386.32718162252905C468.45337339261425 413.17979333552137 447.6299051874879 450.52892179606624 423.3747427764305 462.3599545669447 "></path><path d="M454.80476613261817 388.60598722857236C457.0444778271786 410.98316365606604 439.6915876562399 442.1074373731867 419.47895231369205 451.9666313489188C399.2663169711442 461.8258253246508 371.9598028607584 452.485238998524 357.7841164883885 435.93011831208617C343.6084301160186 419.3749976256484 340.8222786239388 391.53828826550443 351.4356577263166 372.5020520540176C362.0490368286944 353.46581584253073 387.1931052618225 341.2011980022505 408.728336179802 344.55618449694947C430.26356709778145 347.9111709916484 452.5650544380577 366.22881080107874 454.80476613261817 388.60598722857236C457.0444778271786 410.98316365606604 439.6915876562399 442.1074373731867 419.47895231369205 451.9666313489188 "></path><path d="M443.84379764730545 390.88477757582666C445.6355670029538 408.78651871782154 431.7532548662029 433.6859376915181 415.5831465921646 441.57329287210376C399.4130383181263 449.4606480526894 377.56782702981764 441.9881789917879 366.2272779319217 428.7440824426377C354.8867288340258 415.4999858934875 352.65780764036197 393.2306184053723 361.1485109222642 378.00162943618284C369.6392142041665 362.7726404669933 389.7544689506689 352.9609461947691 406.9826536850525 355.6449353905283C424.21083841943613 358.3289245862875 442.0520282916571 372.9830364338317 443.84379764730545 390.88477757582666C445.6355670029538 408.78651871782154 431.7532548662029 433.6859376915181 415.5831465921646 441.57329287210376 "></path><path d="M432.8828444207818 393.16359844065903C434.22667143751806 406.5899042971552 423.8149373349549 425.26446852742765 411.6873561294262 431.17998491286687C399.55977492389746 437.0955012983061 383.17586645766596 431.49114950263 374.67045463424404 421.5580770907673C366.1650428108221 411.6250046789047 364.49335191557424 394.9229790628183 370.8613793770009 383.5012373359262C377.22940683842756 372.07949560903404 392.3158478983044 364.7207249048659 405.2369864490921 366.7337168016853C418.1581249998798 368.7467086985047 431.5390174040456 379.73729258416284 432.8828444207818 393.16359844065903C434.22667143751806 406.5899042971552 423.8149373349549 425.26446852742765 411.6873561294262 431.17998491286687 "></path><path d="M421.92190645304726 395.4424040467024C422.81779113087146 404.39327461769983 415.87663506249595 416.8429841045481 407.7915809254768 420.7866616948409C399.70652678845767 424.73033928513377 388.78392114430335 420.994104754683 383.1136465953554 414.3720564801079C377.44337204640743 407.7500082055328 376.3289114495755 396.6153244614752 380.57426309052664 389.0008299768805C384.81961473147777 381.38633549228575 394.87724210472896 376.4804883561736 403.49133447192077 377.8224829540532C412.10542683911257 379.1644775519328 421.02602177522306 386.49153347570495 421.92190645304726 395.4424040467024C422.81779113087146 404.39327461769983 415.87663506249595 416.8429841045481 407.7915809254768 420.7866616948409 "></path><path d="M410.9609379677346 397.72119439395664C411.40888030664667 402.1966296794554 407.93830227245894 408.42148442287953 403.89577520394937 410.39332321802596C399.8532481354398 412.3651620131723 394.3919453133626 410.497044747947 391.5568080388886 407.1860206106594C388.7216707644147 403.8749964733719 388.1644404659987 398.3076546013431 390.28711628647426 394.5004073590457C392.4097921069498 390.69316011674834 397.43860579357545 388.2402365486923 401.74565197717135 388.9112338476321C406.05269816076725 389.58223114657187 410.51299562882247 393.24575910845795 410.9609379677346 397.72119439395664C411.40888030664667 402.1966296794554 407.93830227245894 408.42148442287953 403.89577520394937 410.39332321802596 "></path></g></svg>