<svg xmlns="http://www.w3.org/2000/svg" version="1.1" xmlns:xlink="http://www.w3.org/1999/xlink"
    viewBox="0 0 800 800" opacity="0.37">
    <defs>
        <filter id="bbburst-blur-1" x="-100%" y="-100%" width="400%" height="400%">
            <feGaussianBlur in="SourceGraphic" stdDeviation="1"></feGaussianBlur>
        </filter>
        <filter id="bbburst-blur-2" x="-100%" y="-100%" width="400%" height="400%">
            <feGaussianBlur in="SourceGraphic" stdDeviation="2"></feGaussianBlur>
        </filter>
        <filter id="bbburst-blur-3" x="-100%" y="-100%" width="400%" height="400%">
            <feGaussianBlur in="SourceGraphic" stdDeviation="4"></feGaussianBlur>
        </filter>
        <filter id="bbburst-blur-4" x="-100%" y="-100%" width="400%" height="400%">
            <feGaussianBlur in="SourceGraphic" stdDeviation="12"></feGaussianBlur>
        </filter>
        <symbol id="bbburst-shape-4" viewBox="0 0 149 143">
            <path d="M71.647 2.781c.898-2.764 4.808-2.764 5.706 0l15.445 47.534a3 3 0 0 0 2.853 2.073h49.98c2.906 0 4.115 3.719 1.764 5.427L106.96 87.193a2.999 2.999 0 0 0-1.09 3.354l15.445 47.534c.898 2.764-2.266 5.062-4.617 3.354l-40.435-29.378a3 3 0 0 0-3.526 0l-40.435 29.378c-2.351 1.708-5.515-.59-4.617-3.354L43.13 90.547a3 3 0 0 0-1.09-3.354L1.605 57.815c-2.35-1.708-1.142-5.427 1.764-5.427h49.98a3 3 0 0 0 2.853-2.073L71.647 2.781Z"></path>
        </symbol>
    </defs>
    <use xlink:href="#bbburst-shape-4" width="23.908858403662016" opacity="0.5838111829113776"
         transform="matrix(0.9371629649843444,0.3488919274814948,-0.3488919274814948,0.9371629649843444,365.05640041802326,78.66684383552251)"
         fill="#ffbd9b" filter="url(#bbburst-blur-1)"></use>
    <use xlink:href="#bbburst-shape-4" width="14.57965848027086" opacity="0.8844755994843492"
         transform="matrix(0.99340467414592,0.11466103690896261,-0.11466103690896261,0.99340467414592,135.4614226063581,338.82463295270685)"
         fill="#2c2891"></use>
    <use xlink:href="#bbburst-shape-4" width="19.082152865838324" opacity="0.5999328053122036"
         transform="matrix(0.8391175659026764,0.5439500993598289,-0.5439500993598289,0.8391175659026764,608.9661342404775,436.1105798834843)"
         fill="#ffbd9b" filter="url(#bbburst-blur-1)"></use>
    <use xlink:href="#bbburst-shape-4" width="6.597353714230002" opacity="0.9201781062152399"
         transform="matrix(0.9666545632507907,-0.2560838834179594,0.2560838834179594,0.9666545632507907,-26.83279471817326,401.38248496954435)"
         fill="#ffa6d5"></use>
    <use xlink:href="#bbburst-shape-4" width="53.37295287115468" opacity="0.2747440977252642"
         transform="matrix(0.9568215439040525,0.29067599336901806,-0.29067599336901806,0.9568215439040525,343.57977027769107,-270.1886734588151)"
         fill="#00a19d" filter="url(#bbburst-blur-2)"></use>
    <use xlink:href="#bbburst-shape-4" width="48.32889000569075" opacity="0.23056171371707446"
         transform="matrix(0.7292497403187663,-0.684247627869481,0.684247627869481,0.7292497403187663,-114.94934677409435,-224.0919298386297)"
         fill="#ffa6d5" filter="url(#bbburst-blur-3)"></use>
    <use xlink:href="#bbburst-shape-4" width="9.109631933345582" opacity="0.9001506853609544"
         transform="matrix(0.9339313590437365,-0.3574523976625691,0.3574523976625691,0.9339313590437365,-51.12410922634085,400.9860504085633)"
         fill="#00a19d"></use>
    <use xlink:href="#bbburst-shape-4" width="7.191129649658946" opacity="0.9418067060281858"
         transform="matrix(0.9503932607488169,0.31105087995894054,-0.31105087995894054,0.9503932607488169,178.55464646144725,410.1252262597739)"
         fill="#ffa6d5"></use>
    <use xlink:href="#bbburst-shape-4" width="38.01009680076657" opacity="0.4134646438826891"
         transform="matrix(0.9720625679272891,-0.23472188656920026,0.23472188656920026,0.9720625679272891,371.5839539454463,84.26787168742698)"
         fill="#ff5c58" filter="url(#bbburst-blur-2)"></use>
    <use xlink:href="#bbburst-shape-4" width="28.258362241678036" opacity="0.4972262248138688"
         transform="matrix(0.8975691527492595,-0.44087369623620826,0.44087369623620826,0.8975691527492595,-152.4155885543438,-54.21493058986971)"
         fill="#00a19d" filter="url(#bbburst-blur-1)"></use>
    <use xlink:href="#bbburst-shape-4" width="18.557401782149423" opacity="0.5560348101289179"
         transform="matrix(0.8336303638399946,0.5523227466653879,-0.5523227466653879,0.8336303638399946,654.2270660077738,410.5766576961729)"
         fill="#ffa6d5" filter="url(#bbburst-blur-1)"></use>
    <use xlink:href="#bbburst-shape-4" width="35.197374759788666" opacity="0.37703162930306766"
         transform="matrix(0.7829220629668197,-0.6221197982059238,0.6221197982059238,0.7829220629668197,-78.35117561070558,-97.29154457785111)"
         fill="#00a19d" filter="url(#bbburst-blur-2)"></use>
    <use xlink:href="#bbburst-shape-4" width="15.553785670153555" opacity="0.8292027635999524"
         transform="matrix(0.7610161685556196,0.6487329120654545,-0.6487329120654545,0.7610161685556196,273.0965817979268,320.88226307270986)"
         fill="#00a19d"></use>
    <use xlink:href="#bbburst-shape-4" width="11.092154929500298" opacity="0.8619373322731023"
         transform="matrix(0.9939682340162482,0.1096683626513171,-0.1096683626513171,0.9939682340162482,58.440482447581324,265.2208650555878)"
         fill="#ffa6d5"></use>
    <use xlink:href="#bbburst-shape-4" width="3.60168860000846" opacity="0.9911356662850591"
         transform="matrix(0.8557271066940909,0.5174274044433286,-0.5174274044433286,0.8557271066940909,212.8741014689602,451.9702052438051)"
         fill="#ffa6d5"></use>
    <use xlink:href="#bbburst-shape-4" width="22.817965323013123" opacity="0.5768986901499537"
         transform="matrix(0.999625742886923,-0.02735642808861111,0.02735642808861111,0.999625742886923,63.643147950850135,-13.788462244403433)"
         fill="#ff5c58" filter="url(#bbburst-blur-1)"></use>
    <use xlink:href="#bbburst-shape-4" width="32.252832636019654" opacity="0.48295378857814897"
         transform="matrix(0.815476611538092,-0.5787900275871654,0.5787900275871654,0.815476611538092,31.271008244613284,45.89770585761681)"
         fill="#ffbd9b" filter="url(#bbburst-blur-1)"></use>
    <use xlink:href="#bbburst-shape-4" width="13.452521126217011" opacity="0.681297360692598"
         transform="matrix(0.9911739176321882,-0.13256796372299048,0.13256796372299048,0.9911739176321882,-35.327682134917616,86.66430371948314)"
         fill="#ffa6d5"></use>
    <use xlink:href="#bbburst-shape-4" width="29.34558359756538" opacity="0.643584285188475"
         transform="matrix(0.7953676101509077,-0.6061273502514415,0.6061273502514415,0.7953676101509077,79.40478330310722,365.0564931567892)"
         fill="#2c2891" filter="url(#bbburst-blur-1)"></use>
    <use xlink:href="#bbburst-shape-4" width="13.838096442178866" opacity="0.8487844246616821"
         transform="matrix(0.9142393679958546,0.40517450315455483,-0.40517450315455483,0.9142393679958546,305.79048214466684,412.7850310268685)"
         fill="#00a19d"></use>
    <use xlink:href="#bbburst-shape-4" width="13.661002017574518" opacity="0.8392387196929852"
         transform="matrix(0.9850534464755125,-0.17224896976967552,0.17224896976967552,0.9850534464755125,61.414794192958865,323.11952856085986)"
         fill="#00a19d"></use>
    <use xlink:href="#bbburst-shape-4" width="40.31782116242222" opacity="0.2426967411339631"
         transform="matrix(0.9996909224600341,-0.024860803506848776,0.024860803506848776,0.9996909224600341,703.1653102780832,211.35773387384546)"
         fill="#ff5c58" filter="url(#bbburst-blur-3)"></use>
    <use xlink:href="#bbburst-shape-4" width="6.623881053054173" opacity="0.955867765197956"
         transform="matrix(0.9363172061061956,0.3511553638341409,-0.3511553638341409,0.9363172061061956,144.53998486744183,380.77164983761406)"
         fill="#2c2891"></use>
    <use xlink:href="#bbburst-shape-4" width="16.554916790871534" opacity="0.7954641696426245"
         transform="matrix(0.9801834875018399,-0.19809172327164618,0.19809172327164618,0.9801834875018399,-63.37604487528161,206.45474097820983)"
         fill="#ffa6d5"></use>
    <use xlink:href="#bbburst-shape-4" width="28.508430794541937" opacity="0.6262072210796612"
         transform="matrix(0.8800636328195826,-0.47485576988007516,0.47485576988007516,0.8800636328195826,51.63771613773952,180.63478180115533)"
         fill="#ffbd9b" filter="url(#bbburst-blur-1)"></use>
    <use xlink:href="#bbburst-shape-4" width="15.715367471312632" opacity="0.8665581887163389"
         transform="matrix(0.9653460430152067,0.2609732117189095,-0.2609732117189095,0.9653460430152067,154.80698936862171,291.6501506138675)"
         fill="#ffa6d5"></use>
    <use xlink:href="#bbburst-shape-4" width="37.110243205332694" opacity="0.5319954133054389"
         transform="matrix(0.9491002810935205,0.3149740567542038,-0.3149740567542038,0.9491002810935205,255.47430165450714,-29.73635631634295)"
         fill="#ff5c58" filter="url(#bbburst-blur-1)"></use>
    <use xlink:href="#bbburst-shape-4" width="14.451777248291545" opacity="0.7903353564207377"
         transform="matrix(0.8342216391410324,0.5514292853928319,-0.5514292853928319,0.8342216391410324,401.5084205615756,367.4654059523866)"
         fill="#ff5c58"></use>
    <use xlink:href="#bbburst-shape-4" width="45.5400448794809" opacity="0.2397377449360879"
         transform="matrix(0.9908760978676329,-0.13477595733146602,0.13477595733146602,0.9908760978676329,583.5662720893508,29.460282593493844)"
         fill="#ffbd9b" filter="url(#bbburst-blur-3)"></use>
    <use xlink:href="#bbburst-shape-4" width="31.55853317751796" opacity="0.42564251042182233"
         transform="matrix(0.9923784319990654,0.1232276255677933,-0.1232276255677933,0.9923784319990654,73.33066151595371,-171.8510304096463)"
         fill="#2c2891" filter="url(#bbburst-blur-2)"></use>
    <use xlink:href="#bbburst-shape-4" width="58.68177915565887" opacity="0.34149067875411687"
         transform="matrix(0.7958253096595047,0.6055262806066748,-0.6055262806066748,0.7958253096595047,538.5647339667926,-111.73052452345345)"
         fill="#2c2891" filter="url(#bbburst-blur-2)"></use>
    <use xlink:href="#bbburst-shape-4" width="22.874159669323802" opacity="0.5963199789025473"
         transform="matrix(0.8051869641006533,-0.5930210391228741,0.5930210391228741,0.8051869641006533,-221.14840665262756,81.83525968296715)"
         fill="#2c2891" filter="url(#bbburst-blur-1)"></use>
    <use xlink:href="#bbburst-shape-4" width="19.285949600526738" opacity="0.6775158721234573"
         transform="matrix(0.839832989104445,0.542844867721795,-0.542844867721795,0.839832989104445,456.6312015037015,252.23215917914428)"
         fill="#ff5c58"></use>
    <use xlink:href="#bbburst-shape-4" width="21.488412484539985" opacity="0.7483553048239582"
         transform="matrix(0.7277267152379179,-0.6858672086701845,0.6858672086701845,0.7277267152379179,-132.15650568744414,314.237450733409)"
         fill="#ffa6d5"></use>
    <use xlink:href="#bbburst-shape-4" width="13.94377571069849" opacity="0.8156404686467642"
         transform="matrix(0.8728983339663782,-0.4879021403506253,0.4879021403506253,0.8728983339663782,-17.832210500924305,435.5489870182863)"
         fill="#ffa6d5"></use>
    <use xlink:href="#bbburst-shape-4" width="17.042577184328458" opacity="0.640261655678612"
         transform="matrix(0.9346260089648702,-0.35563214613754796,0.35563214613754796,0.9346260089648702,-121.88097559682248,70.57347321897328)"
         fill="#00a19d" filter="url(#bbburst-blur-1)"></use>
    <use xlink:href="#bbburst-shape-4" width="15.239262386151792" opacity="0.7522087346338067"
         transform="matrix(0.9962644553966269,-0.08635470405983911,0.08635470405983911,0.9962644553966269,199.57612512035104,347.5972938300803)"
         fill="#2c2891"></use>
    <use xlink:href="#bbburst-shape-4" width="37.47251332263226" opacity="0.33199922275026506"
         transform="matrix(0.7837003393517135,0.6211390972238096,-0.6211390972238096,0.7837003393517135,861.400372139554,246.2579881342745)"
         fill="#ffbd9b" filter="url(#bbburst-blur-2)"></use>
    <use xlink:href="#bbburst-shape-4" width="14.310959993605348" opacity="0.7598991401972703"
         transform="matrix(0.9069202176002508,-0.4213024079066173,0.4213024079066173,0.9069202176002508,-159.5729096429342,200.65391606162416)"
         fill="#ffbd9b"></use>
    <use xlink:href="#bbburst-shape-4" width="18.654220167793767" opacity="0.6518566443081824"
         transform="matrix(0.9441988419447505,0.32937599619612873,-0.32937599619612873,0.9441988419447505,470.27724527464886,395.6136670096355)"
         fill="#00a19d"></use>
    <use xlink:href="#bbburst-shape-4" width="21.519830688931634" opacity="0.7509437520016554"
         transform="matrix(0.8818997731268097,-0.4714369418690921,0.4714369418690921,0.8818997731268097,32.0646676462284,357.0720452765776)"
         fill="#00a19d"></use>
    <use xlink:href="#bbburst-shape-4" width="19.236057620839727" opacity="0.827230586802418"
         transform="matrix(0.8025124823728595,0.5966353288531873,-0.5966353288531873,0.8025124823728595,289.922911727628,310.8866425838417)"
         fill="#00a19d"></use>
    <use xlink:href="#bbburst-shape-4" width="9.263472722908435" opacity="0.9375213679479428"
         transform="matrix(0.922511932178865,-0.38596856735700286,0.38596856735700286,0.922511932178865,-102.7031894582662,404.99235232268745)"
         fill="#ffa6d5"></use>
    <use xlink:href="#bbburst-shape-4" width="17.383968784859462" opacity="0.5462379984903373"
         transform="matrix(0.9486032202457724,-0.31646789811819864,0.31646789811819864,0.9486032202457724,-90.73914038651671,-28.290647922872722)"
         fill="#2c2891" filter="url(#bbburst-blur-1)"></use>
    <use xlink:href="#bbburst-shape-4" width="6.583657404723159" opacity="0.9702799231204958"
         transform="matrix(0.8200372266591901,-0.5723101841598698,0.5723101841598698,0.8200372266591901,-220.83617153049286,446.1793790255069)"
         fill="#2c2891"></use>
    <use xlink:href="#bbburst-shape-4" width="13.911127038568239" opacity="0.8964143412580654"
         transform="matrix(0.7084349158836094,0.7057761472003593,-0.7057761472003593,0.7084349158836094,336.4304437370355,426.6240754776534)"
         fill="#ff5c58"></use>
    <use xlink:href="#bbburst-shape-4" width="18.029271017480028" opacity="0.6423137116385218"
         transform="matrix(0.9985011945761502,0.05472992262009005,-0.05472992262009005,0.9985011945761502,91.96110383222711,51.28553482343301)"
         fill="#ffbd9b" filter="url(#bbburst-blur-1)"></use>
    <use xlink:href="#bbburst-shape-4" width="38.61918770751377" opacity="0.5111987528179534"
         transform="matrix(0.9862564918764251,-0.16522146419762523,0.16522146419762523,0.9862564918764251,328.00580581488623,147.47938934727983)"
         fill="#ffbd9b" filter="url(#bbburst-blur-1)"></use>
    <use xlink:href="#bbburst-shape-4" width="5.608581211923807" opacity="0.9596430144672397"
         transform="matrix(0.8794678802936934,0.47595824137388126,-0.47595824137388126,0.8794678802936934,227.17151041688402,437.52415289861756)"
         fill="#2c2891"></use>
    <use xlink:href="#bbburst-shape-4" width="17.01311485734886" opacity="0.751419999267776"
         transform="matrix(0.8601698128592359,-0.5100077382213991,0.5100077382213991,0.8601698128592359,-159.50552007631302,217.1622592715766)"
         fill="#ff5c58"></use>
    <use xlink:href="#bbburst-shape-4" width="43.22136124151975" opacity="0.3409518732218234"
         transform="matrix(0.975663567998101,-0.21927289408683204,0.21927289408683204,0.975663567998101,378.77962221979874,-28.91243826803708)"
         fill="#00a19d" filter="url(#bbburst-blur-2)"></use>
    <use xlink:href="#bbburst-shape-4" width="14.282467788578144" opacity="0.8299937407191449"
         transform="matrix(0.9360547109990651,-0.3518544841499915,0.3518544841499915,0.9360547109990651,-23.693848854750755,311.5117367909247)"
         fill="#ff5c58"></use>
    <use xlink:href="#bbburst-shape-4" width="8.673144129853037" opacity="0.9148293406848241"
         transform="matrix(0.8853084277430533,-0.46500428790186765,0.46500428790186765,0.8853084277430533,-173.82228548123138,364.2487002311916)"
         fill="#00a19d"></use>
    <use xlink:href="#bbburst-shape-4" width="31.153154314464846" opacity="0.35155530043952943"
         transform="matrix(0.9998069149888865,0.01965026056838354,-0.01965026056838354,0.9998069149888865,73.69403519265833,-243.5148333090274)"
         fill="#00a19d" filter="url(#bbburst-blur-2)"></use>
    <use xlink:href="#bbburst-shape-4" width="21.828785797652106" opacity="0.6961168997886804"
         transform="matrix(0.8880671070877327,-0.4597138385004583,0.4597138385004583,0.8880671070877327,1.5588699155277368,216.8490826788568)"
         fill="#ff5c58"></use>
    <use xlink:href="#bbburst-shape-4" width="32.15236792024762" opacity="0.4429813412819621"
         transform="matrix(0.7522163661867104,0.658916184685777,-0.658916184685777,0.7522163661867104,805.4462142782164,430.5521639109296)"
         fill="#ffa6d5" filter="url(#bbburst-blur-2)"></use>
    <use xlink:href="#bbburst-shape-4" width="20.745554152615053" opacity="0.5687117409470019"
         transform="matrix(0.9509369193067848,-0.309384833984023,0.309384833984023,0.9509369193067848,59.007531291042795,36.96729538556946)"
         fill="#00a19d" filter="url(#bbburst-blur-1)"></use>
    <use xlink:href="#bbburst-shape-4" width="48.4698228612872" opacity="0.40218539472487624"
         transform="matrix(0.9854250914531782,0.17010993249806247,-0.17010993249806247,0.9854250914531782,417.8076899843102,-64.90308659032587)"
         fill="#00a19d" filter="url(#bbburst-blur-2)"></use>
    <use xlink:href="#bbburst-shape-4" width="31.847723491338336" opacity="0.37586381816089864"
         transform="matrix(0.9430612663979041,-0.3326190731452143,0.3326190731452143,0.9430612663979041,475.18508607665643,394.6704489731549)"
         fill="#00a19d" filter="url(#bbburst-blur-2)"></use>
    <use xlink:href="#bbburst-shape-4" width="25.546017910042625" opacity="0.23046762778572671"
         transform="matrix(0.981686341186229,0.1905044029107852,-0.1905044029107852,0.981686341186229,827.0358409485929,307.78258526397127)"
         fill="#ffa6d5" filter="url(#bbburst-blur-3)"></use>
    <use xlink:href="#bbburst-shape-4" width="9.852299973320115" opacity="0.9215657076092933"
         transform="matrix(0.955063893371533,-0.29639999928813965,0.29639999928813965,0.955063893371533,-82.54217945790965,352.40712112538046)"
         fill="#00a19d"></use>
    <use xlink:href="#bbburst-shape-4" width="30.701628279648407" opacity="0.4724589776382524"
         transform="matrix(0.9999259343857027,0.012170691963876256,-0.012170691963876256,0.9999259343857027,381.38687633019435,46.68728590173805)"
         fill="#2c2891" filter="url(#bbburst-blur-1)"></use>
    <use xlink:href="#bbburst-shape-4" width="13.26065455645686" opacity="0.8803659308017633"
         transform="matrix(0.8061017212390922,0.5917769977072216,-0.5917769977072216,0.8061017212390922,350.246783117391,460.3041409636859)"
         fill="#ffa6d5"></use>
    <use xlink:href="#bbburst-shape-4" width="15.115760817824789" opacity="0.7910122878426338"
         transform="matrix(0.9999379576955815,0.011139154348045991,-0.011139154348045991,0.9999379576955815,134.84435641860213,242.96172756020496)"
         fill="#00a19d"></use>
    <use xlink:href="#bbburst-shape-4" width="15.461480085855532" opacity="0.8308068218808413"
         transform="matrix(0.9083137437270079,0.41828954440271093,-0.41828954440271093,0.9083137437270079,253.74842549374148,292.41640676356815)"
         fill="#ffa6d5"></use>
    <use xlink:href="#bbburst-shape-4" width="15.55071389313332" opacity="0.7112136309187378"
         transform="matrix(0.9978392920417549,-0.06570195779129642,0.06570195779129642,0.9978392920417549,244.84029681084644,326.394400949948)"
         fill="#00a19d"></use>
    <use xlink:href="#bbburst-shape-4" width="7.87920456132092" opacity="0.9603294777978666"
         transform="matrix(0.9519246790856195,-0.3063321813778963,0.3063321813778963,0.9519246790856195,-95.57299404458645,395.3285318823138)"
         fill="#00a19d"></use>
    <use xlink:href="#bbburst-shape-4" width="19.50146218563486" opacity="0.6085219122582886"
         transform="matrix(0.973218928319727,0.22988022437826636,-0.22988022437826636,0.973218928319727,213.94204601188508,39.75092242280158)"
         fill="#ffa6d5" filter="url(#bbburst-blur-1)"></use>
    <use xlink:href="#bbburst-shape-4" width="44.77394589879697" opacity="0.43611570807515565"
         transform="matrix(0.9821031013775703,-0.18834409538012575,0.18834409538012575,0.9821031013775703,416.70096953201926,179.57100671520118)"
         fill="#2c2891" filter="url(#bbburst-blur-2)"></use>
    <use xlink:href="#bbburst-shape-4" width="14.907191177093702" opacity="0.7209314824770974"
         transform="matrix(0.8610640808023319,0.5084964589375577,-0.5084964589375577,0.8610640808023319,220.957667798627,173.75990401468124)"
         fill="#ffa6d5"></use>
    <use xlink:href="#bbburst-shape-4" width="13.713915324798961" opacity="0.7818235565619128"
         transform="matrix(0.9168885602789244,0.39914329260259557,-0.39914329260259557,0.9168885602789244,223.825000170471,224.03325946645265)"
         fill="#ff5c58"></use>
    <use xlink:href="#bbburst-shape-4" width="24.674056177864102" opacity="0.7314872872044311"
         transform="matrix(0.895354596319069,0.4453539568144836,-0.4453539568144836,0.895354596319069,393.3860189686389,291.8599056834015)"
         fill="#2c2891"></use>
    <use xlink:href="#bbburst-shape-4" width="45.2466811452849" opacity="0.17951312962455568"
         transform="matrix(0.9608030339471735,-0.2772319064572234,0.2772319064572234,0.9608030339471735,234.2090598596916,-311.9284709647858)"
         fill="#2c2891" filter="url(#bbburst-blur-3)"></use>
    <use xlink:href="#bbburst-shape-4" width="16.930905993634575" opacity="0.6975536455311135"
         transform="matrix(0.9538188812771292,0.30038232591023994,-0.30038232591023994,0.9538188812771292,413.6030384220957,392.4090136297777)"
         fill="#ffa6d5"></use>
    <use xlink:href="#bbburst-shape-4" width="36.65260484878755" opacity="0.5262440817067373"
         transform="matrix(0.9840129919229688,-0.1780966920714905,0.1780966920714905,0.9840129919229688,347.00902030946406,225.006074956695)"
         fill="#2c2891" filter="url(#bbburst-blur-1)"></use>
    <use xlink:href="#bbburst-shape-4" width="16.37388117638606" opacity="0.6711128724694995"
         transform="matrix(0.7236382265410707,-0.6901794817933188,0.6901794817933188,0.7236382265410707,39.385156354845776,446.29629779984464)"
         fill="#ffa6d5"></use>
    <use xlink:href="#bbburst-shape-4" width="12.942627376057448" opacity="0.8653580514643504"
         transform="matrix(0.9508397531350459,-0.30968332835024387,0.30968332835024387,0.9508397531350459,-4.062652724669931,374.11384529538117)"
         fill="#ff5c58"></use>
    <use xlink:href="#bbburst-shape-4" width="17.755538224808916" opacity="0.7777685941149195"
         transform="matrix(0.9990661162635109,0.04320758422019047,-0.04320758422019047,0.9990661162635109,229.91840335461748,382.0592426982228)"
         fill="#ffa6d5"></use>
    <use xlink:href="#bbburst-shape-4" width="32.337049552121016" opacity="0.5935801576924622"
         transform="matrix(0.9384409064269565,0.34543981406976254,-0.34543981406976254,0.9384409064269565,482.27047955476417,229.07523800640502)"
         fill="#00a19d" filter="url(#bbburst-blur-1)"></use>
    <use xlink:href="#bbburst-shape-4" width="29.97915041060211" opacity="0.6549474731720659"
         transform="matrix(0.9435078630304845,-0.33135013565660204,0.33135013565660204,0.9435078630304845,35.4773679133672,134.5327522325739)"
         fill="#ffa6d5"></use>
    <use xlink:href="#bbburst-shape-4" width="43.310839930197176" opacity="0.1930956903533313"
         transform="matrix(0.9847637370665968,0.1738976197612569,-0.1738976197612569,0.9847637370665968,796.3185261452634,99.9551307042289)"
         fill="#ffa6d5" filter="url(#bbburst-blur-3)"></use>
    <use xlink:href="#bbburst-shape-4" width="20.770382086833827" opacity="0.742618928871664"
         transform="matrix(0.9931885970341544,0.11651785580471406,-0.11651785580471406,0.9931885970341544,226.33738309296655,227.96139868121577)"
         fill="#00a19d"></use>
    <use xlink:href="#bbburst-shape-4" width="22.86696913227131" opacity="0.6195927794676173"
         transform="matrix(0.9149719180700643,-0.40351752024315807,0.40351752024315807,0.9149719180700643,201.33808593842116,364.93600373940245)"
         fill="#ffa6d5" filter="url(#bbburst-blur-1)"></use>
    <use xlink:href="#bbburst-shape-4" width="21.615572263504877" opacity="0.6658727022383697"
         transform="matrix(0.8198677296312441,0.5725529721425863,-0.5725529721425863,0.8198677296312441,349.08691211300123,157.63419467458147)"
         fill="#2c2891"></use>
    <use xlink:href="#bbburst-shape-4" width="8.21383905983389" opacity="0.9494402050760871"
         transform="matrix(0.9156946456813351,0.4018747514718164,-0.4018747514718164,0.9156946456813351,181.84160725136232,388.0500629407236)"
         fill="#ffa6d5"></use>
    <use xlink:href="#bbburst-shape-4" width="13.649626597376074" opacity="0.7897105087034011"
         transform="matrix(0.9988914651155391,-0.047072719480946414,0.047072719480946414,0.9988914651155391,142.58201966664646,274.59827400197787)"
         fill="#00a19d"></use>
    <use xlink:href="#bbburst-shape-4" width="18.598131335761337" opacity="0.6936226518532628"
         transform="matrix(0.9928714776182165,-0.11918988603157309,0.11918988603157309,0.9928714776182165,14.125821956013667,105.94723421751684)"
         fill="#2c2891"></use>
    <use xlink:href="#bbburst-shape-4" width="30.042311549971654" opacity="0.3335285938224143"
         transform="matrix(0.9257889333304862,0.3780408058964015,-0.3780408058964015,0.9257889333304862,713.8102511275135,89.63675829357987)"
         fill="#2c2891" filter="url(#bbburst-blur-2)"></use>
    <use xlink:href="#bbburst-shape-4" width="4.375366915236223" opacity="0.9825086006805788"
         transform="matrix(0.9239609501327438,-0.38248681366786647,0.38248681366786647,0.9239609501327438,-147.4986202444766,415.46175058649834)"
         fill="#2c2891"></use>
    <use xlink:href="#bbburst-shape-4" width="79.72539002319544" opacity="0.10516134929804322"
         transform="matrix(0.9041546793810578,0.42720523844322966,-0.42720523844322966,0.9041546793810578,671.3472859730794,-294.77051177774297)"
         fill="#00a19d" filter="url(#bbburst-blur-3)"></use>
    <use xlink:href="#bbburst-shape-4" width="13.604945718301945" opacity="0.7911733270168755"
         transform="matrix(0.8520908577503812,-0.5233938957785232,0.5233938957785232,0.8520908577503812,-13.772640441131443,407.4464172749274)"
         fill="#ff5c58"></use>
    <use xlink:href="#bbburst-shape-4" width="40.67987782297801" opacity="0.2576849188543583"
         transform="matrix(0.9620030372586506,-0.2730387450621825,0.2730387450621825,0.9620030372586506,-76.18245201495267,-319.66190200990974)"
         fill="#ff5c58" filter="url(#bbburst-blur-2)"></use>
    <use xlink:href="#bbburst-shape-4" width="68.57094669330105" opacity="0.2542831840844767"
         transform="matrix(0.8934602034221549,0.4491423659607736,-0.4491423659607736,0.8934602034221549,602.909396001113,-164.38318421192284)"
         fill="#00a19d" filter="url(#bbburst-blur-2)"></use>
    <use xlink:href="#bbburst-shape-4" width="43.56690111946507" opacity="0.3431780433848426"
         transform="matrix(0.9995800735154238,0.02897717430840982,-0.02897717430840982,0.9995800735154238,636.2882951326249,283.43920191751874)"
         fill="#00a19d" filter="url(#bbburst-blur-2)"></use>
    <use xlink:href="#bbburst-shape-4" width="40.06429610039442" opacity="0.42527305215961264"
         transform="matrix(0.9221937442960007,0.3867281965170403,-0.3867281965170403,0.9221937442960007,691.5735616515899,275.50600313711595)"
         fill="#00a19d" filter="url(#bbburst-blur-2)"></use>
    <use xlink:href="#bbburst-shape-4" width="45.23990734963464" opacity="-0.02107254182479723"
         transform="matrix(0.7267750324466438,0.6868755725836958,-0.6868755725836958,0.7267750324466438,966.6983681842057,-241.56477451720951)"
         fill="#2c2891" filter="url(#bbburst-blur-3)"></use>
    <use xlink:href="#bbburst-shape-4" width="9.79743318679228" opacity="0.8911012930124194"
         transform="matrix(0.9783932384493731,-0.20675268065142025,0.20675268065142025,0.9783932384493731,-66.20356292923044,302.86664104286325)"
         fill="#ffbd9b"></use>
    <use xlink:href="#bbburst-shape-4" width="12.307512977703103" opacity="0.913549864045663"
         transform="matrix(0.9886939609336277,-0.1499474961890805,0.1499474961890805,0.9886939609336277,4.580319047005474,355.62290886928866)"
         fill="#2c2891"></use>
    <use xlink:href="#bbburst-shape-4" width="20.032765495072308" opacity="0.5027430028512723"
         transform="matrix(0.972240539474968,-0.23398361780565574,0.23398361780565574,0.972240539474968,392.8420168763778,380.59785781508447)"
         fill="#ffbd9b" filter="url(#bbburst-blur-1)"></use>
    <use xlink:href="#bbburst-shape-4" width="33.36456225256978" opacity="0.5307574426601139"
         transform="matrix(0.9738443550513127,-0.22721613528685145,0.22721613528685145,0.9738443550513127,203.61048720217596,62.66929710178243)"
         fill="#ffa6d5" filter="url(#bbburst-blur-1)"></use>
    <use xlink:href="#bbburst-shape-4" width="6.452573416362561" opacity="0.9760897835483182"
         transform="matrix(0.8699591152011745,-0.4931238565293608,0.4931238565293608,0.8699591152011745,-177.70578448577524,445.11049465033835)"
         fill="#ffa6d5"></use>
    <use xlink:href="#bbburst-shape-4" width="16.209127654560373" opacity="0.7365231963931829"
         transform="matrix(0.7854073680167293,-0.6189792131122288,0.6189792131122288,0.7854073680167293,8.688893552482341,469.84369197153165)"
         fill="#ffa6d5"></use>
    <use xlink:href="#bbburst-shape-4" width="33.86936397571978" opacity="0.4548597349935132"
         transform="matrix(0.8161737895631014,0.5778064946244602,-0.5778064946244602,0.8161737895631014,436.48006547704324,-35.35928631498484)"
         fill="#2c2891" filter="url(#bbburst-blur-1)"></use>
    <use xlink:href="#bbburst-shape-4" width="25.36491759496081" opacity="0.27678869399948314"
         transform="matrix(0.8961235026007272,0.44380476347894754,-0.44380476347894754,0.8961235026007272,888.4554030090469,399.82342833159476)"
         fill="#00a19d" filter="url(#bbburst-blur-2)"></use>
    <use xlink:href="#bbburst-shape-4" width="17.880214036002652" opacity="0.7277537336715729"
         transform="matrix(0.8162016635997055,-0.5777671194668949,0.5777671194668949,0.8162016635997055,-147.71284049820622,221.99791301642665)"
         fill="#ffa6d5"></use>
    <use xlink:href="#bbburst-shape-4" width="7.750147264119239" opacity="0.9364564422424058"
         transform="matrix(0.8031319506010376,0.5958012000019575,-0.5958012000019575,0.8031319506010376,247.87691529650138,414.1770718211219)"
         fill="#ffbd9b"></use>
    <use xlink:href="#bbburst-shape-4" width="29.974095040670562" opacity="0.5792089054143883"
         transform="matrix(0.973872323293742,0.22709623053333455,-0.22709623053333455,0.973872323293742,479.3814833925512,286.49417725058805)"
         fill="#2c2891" filter="url(#bbburst-blur-1)"></use>
    <use xlink:href="#bbburst-shape-4" width="20.05073055299232" opacity="0.7851384147666727"
         transform="matrix(0.9399068295614563,0.34143103512090334,-0.34143103512090334,0.9399068295614563,231.26583765607933,232.6846199653753)"
         fill="#2c2891"></use>
    <use xlink:href="#bbburst-shape-4" width="22.92618914044849" opacity="0.6992412313554335"
         transform="matrix(0.8524990669771789,0.5227287449557747,-0.5227287449557747,0.8524990669771789,473.34301203210015,329.08721281017887)"
         fill="#ffa6d5"></use>
    <use xlink:href="#bbburst-shape-4" width="13.89170792484784" opacity="0.8668269667799333"
         transform="matrix(0.7802573420460387,-0.6254586158837776,0.6254586158837776,0.7802573420460387,-163.57496744606212,395.9841940398609)"
         fill="#ffa6d5"></use>
    <use xlink:href="#bbburst-shape-4" width="33.71830834015342" opacity="0.5055293577041069"
         transform="matrix(0.8960650637729755,-0.4439227426991474,0.4439227426991474,0.8960650637729755,287.02317313580375,329.07341941771784)"
         fill="#ffa6d5" filter="url(#bbburst-blur-1)"></use>
    <use xlink:href="#bbburst-shape-4" width="55.992502696170945" opacity="0.06759336106282132"
         transform="matrix(0.8561699199270459,0.5166943663444722,-0.5166943663444722,0.8561699199270459,892.2420314978542,-161.79206754344222)"
         fill="#ff5c58" filter="url(#bbburst-blur-3)"></use>
    <use xlink:href="#bbburst-shape-4" width="7.067693826846177" opacity="0.9372347865131019"
         transform="matrix(0.7086022423274813,-0.7056081505825067,0.7056081505825067,0.7086022423274813,-240.28317773011022,474.75354088675)"
         fill="#2c2891"></use>
    <use xlink:href="#bbburst-shape-4" width="19.096416976277013" opacity="0.722101896362522"
         transform="matrix(0.8847707306574271,-0.466026559513428,0.466026559513428,0.8847707306574271,-62.9548446588708,205.9532524762298)"
         fill="#2c2891"></use>
    <use xlink:href="#bbburst-shape-4" width="46.484655779831435" opacity="0.12657144686842647"
         transform="matrix(0.906059249706256,0.4231508431064938,-0.4231508431064938,0.906059249706256,887.6967478035698,-36.97587184413368)"
         fill="#ffa6d5" filter="url(#bbburst-blur-3)"></use>
    <use xlink:href="#bbburst-shape-4" width="60.392988348824176" opacity="0.21360229275464093"
         transform="matrix(0.8992921217375294,0.4373484649347848,-0.4373484649347848,0.8992921217375294,736.1979472975928,-94.56542117881213)"
         fill="#ffa6d5" filter="url(#bbburst-blur-3)"></use>
    <use xlink:href="#bbburst-shape-4" width="17.7589403848093" opacity="0.8272636199902563"
         transform="matrix(0.910716662187472,0.41303167095770016,-0.41303167095770016,0.910716662187472,320.1534715039546,374.98402683631946)"
         fill="#ffbd9b"></use>
    <use xlink:href="#bbburst-shape-4" width="39.6636570875657" opacity="0.465611768070477"
         transform="matrix(0.8649592084399332,-0.501842174129441,0.501842174129441,0.8649592084399332,-99.38370347725571,-57.08657092687497)"
         fill="#2c2891" filter="url(#bbburst-blur-1)"></use>
    <use xlink:href="#bbburst-shape-4" width="26.879761309931453" opacity="0.6557571522430163"
         transform="matrix(0.9794091759772423,-0.20188527933353437,0.20188527933353437,0.9794091759772423,199.79772981136253,231.42549373691236)"
         fill="#2c2891"></use>
    <use xlink:href="#bbburst-shape-4" width="32.08998812275176" opacity="0.5837665392027911"
         transform="matrix(0.9726163051696141,0.2324167010311612,-0.2324167010311612,0.9726163051696141,402.31514701221874,147.15519198158648)"
         fill="#ffbd9b" filter="url(#bbburst-blur-1)"></use>
</svg>